# xmcd
#
# Track frame offsets:
#	150
#	10809
#	24792
#	38683
#	51004
#	64898
#	80819
#	98757
#	114411
#	130421
#	147952
#	149145
#	150131
#	151137
#	152049
#	153381
#	154582
#	155596
#	156608
#	157304
#	157959
#	158702
#	159652
#	160490
#	161224
#	161929
#	162677
#	163342
#	163949
#	164600
#	165515
#	166231
#	166876
#	167546
#
# Disc length: 2240 seconds
#
# Revision: 1
# Processed by: cddbd v1.5.2PL0 Copyright (c) Steve Scherf et al.
# Submitted via: audiograbber 1.83.01
#
DISCID=bd08be22
DTITLE=Various Artist - CDX Volume 611 (January 26, 2015)
DYEAR=2015
DGENRE=Country
TTITLE0=Kip Moore - I'm To Blame
TTITLE1=Michael Ray - Kiss You In The Morning
TTITLE2=Keith Urban (featuring Eric Church) - Raise 'Em Up  [Radio Edit]
TTITLE3=Jeff Bates (featuring Loretta Lynn) - After The Fire Is Gone 
TTITLE4=Abi Ann - Future Ex- Boyfriend
TTITLE5=Rachael Turner - Matches And Moonshine 
TTITLE6=Mitch Goudy - My Girl's Hand
TTITLE7=Livewire - Quit You
TTITLE8=Steve Cheers - Roger That
TTITLE9=Eileen Carey - Sweet Love
TTITLE10=North 40 - Radio Liner - Greatest Hits of All Time
TTITLE11=North 40 - Radio Liner - Home Town Country
TTITLE12=North 40 - Radio Liner - Kickin' Country
TTITLE13=North 40 - Radio Liner - More of the Country You Love Next
TTITLE14=North 40 - Radio Liner - Our New Single
TTITLE15=North 40 - Radio Liner - The Best In Country Music
TTITLE16=North 40 - Radio Liner - Today's Best Country
TTITLE17=North 40 - Radio Liner - Today's Hot Country
TTITLE18=Kenny Davin Fine - Radio Liner - Home Town Country
TTITLE19=Kenny Davin Fine - Radio Liner - Kickin' Country
TTITLE20=Kenny Davin Fine - Radio Liner - More of the Country You Love Next
TTITLE21=Kenny Davin Fine - Radio Liner - My New Single
TTITLE22=Kenny Davin Fine - Radio Liner - Super Country
TTITLE23=Kenny Davin Fine - Radio Liner - The Best In Country Music
TTITLE24=Kenny Davin Fine - Radio Liner - Today's Best Country
TTITLE25=Kenny Davin Fine - Radio Liner - Today's Hot Country
TTITLE26=Donovan Lee - Radio Liner - Home Town Country
TTITLE27=Donovan Lee - Radio Liner - Kickin' Country
TTITLE28=Donovan Lee - Radio Liner - More of the Country You Love Next
TTITLE29=Donovan Lee - Radio Liner - My New Single
TTITLE30=Donovan Lee - Radio Liner - Super Country
TTITLE31=Donovan Lee - Radio Liner - The Best In Country Music
TTITLE32=Donovan Lee - Radio Liner - Today's Best Country
TTITLE33=Donovan Lee - Radio Liner - Today's Hot Country Music
EXTD=
EXTT0=
EXTT1=
EXTT2=
EXTT3=
EXTT4=
EXTT5=
EXTT6=
EXTT7=
EXTT8=
EXTT9=
EXTT10=
EXTT11=
EXTT12=
EXTT13=
EXTT14=
EXTT15=
EXTT16=
EXTT17=
EXTT18=
EXTT19=
EXTT20=
EXTT21=
EXTT22=
EXTT23=
EXTT24=
EXTT25=
EXTT26=
EXTT27=
EXTT28=
EXTT29=
EXTT30=
EXTT31=
EXTT32=
EXTT33=
PLAYORDER=
